<svg width="12" height="10" viewBox="0 0 12 10" fill="none" xmlns="http://www.w3.org/2000/svg">
<path fill-rule="evenodd" clip-rule="evenodd" d="M10.0637 0.317712C10.2683 0.114926 10.5444 0.000798899 10.8325 4.17832e-06C11.1205 -0.000790543 11.3973 0.111811 11.603 0.313465C11.8087 0.515118 11.9268 0.789622 11.9317 1.07763C11.9366 1.36563 11.8279 1.644 11.6292 1.85255L5.79394 9.14667C5.69365 9.25469 5.57261 9.34138 5.43805 9.40155C5.3035 9.46172 5.15819 9.49414 5.01081 9.49687C4.86344 9.4996 4.71703 9.47258 4.58034 9.41743C4.44364 9.36228 4.31947 9.28014 4.21525 9.1759L0.348931 5.30812C0.24122 5.20775 0.154827 5.08672 0.0949076 4.95224C0.0349877 4.81776 0.00276783 4.67259 0.000170615 4.52539C-0.0024266 4.37818 0.0246521 4.23197 0.0797907 4.09546C0.134929 3.95895 0.216999 3.83494 0.321102 3.73084C0.425206 3.62673 0.549212 3.54466 0.685722 3.48952C0.822232 3.43439 0.968449 3.40731 1.11565 3.4099C1.26285 3.4125 1.40802 3.44472 1.5425 3.50464C1.67698 3.56456 1.79802 3.65095 1.89838 3.75867L4.95928 6.8181L10.0359 0.34987C10.045 0.338547 10.0548 0.327806 10.0652 0.317712H10.0637Z" fill="#FD351A"/>
</svg>
